<svg width="128" height="128" viewBox="0 0 128 128" fill="none" xmlns="http://www.w3.org/2000/svg">
  <rect width="128" height="128" rx="28" fill="#F3F7F1"/>
  <path d="M35 45C35 38.3726 40.3726 33 47 33H81C87.6274 33 93 38.3726 93 45V87C93 93.6274 87.6274 99 81 99H47C40.3726 99 35 93.6274 35 87V45Z" fill="#0F172A"/>
  <path d="M48 46C48 37.1634 55.1634 30 64 30C72.8366 30 80 37.1634 80 46V50H73V46C73 41.0294 68.9706 37 64 37C59.0294 37 55 41.0294 55 46V50H48V46Z" fill="#86EFAC"/>
  <rect x="42" y="50" width="44" height="40" rx="10" fill="#22C55E"/>
  <path d="M53 63H75" stroke="white" stroke-width="7" stroke-linecap="round"/>
  <path d="M53 75H69" stroke="#DCFCE7" stroke-width="7" stroke-linecap="round"/>
  <circle cx="88" cy="40" r="12" fill="#DCFCE7"/>
  <path d="M84 40L87 43L92 37" stroke="#16A34A" stroke-width="4" stroke-linecap="round" stroke-linejoin="round"/>
</svg>
